<?xml version="1.0" encoding="UTF-8" standalone="no"?>
<svg width="17px" height="17px" viewBox="0 0 17 17" version="1.1" xmlns="http://www.w3.org/2000/svg" xmlns:xlink="http://www.w3.org/1999/xlink">
    <!-- Generator: Sketch 43.2 (39069) - http://www.bohemiancoding.com/sketch -->
    <title>Group 35</title>
    <desc>Created with Sketch.</desc>
    <defs></defs>
    <g id="Page-1" stroke="none" stroke-width="1" fill="none" fill-rule="evenodd">
        <g id="sprite" transform="translate(-39.000000, -39.000000)" fill="#ECECEC">
            <g id="Group-35" transform="translate(39.000000, 39.000000)">
                <path d="M14.9765625,7.60546875 C14.9765625,3.68122672 11.7358736,0.5 7.73828125,0.5 C3.7406889,0.5 0.5,3.68122672 0.5,7.60546875 C0.5,11.5297108 3.7406889,14.7109375 7.73828125,14.7109375 C11.7358736,14.7109375 14.9765625,11.5297108 14.9765625,7.60546875 Z M7.73828125,12.1875 C5.13434495,12.1875 3.0234375,10.1360547 3.0234375,7.60546875 C3.0234375,5.07488277 5.13434495,3.0234375 7.73828125,3.0234375 C10.3422176,3.0234375 12.453125,5.07488277 12.453125,7.60546875 C12.453125,10.1360547 10.3422176,12.1875 7.73828125,12.1875 L7.73828125,12.1875 Z" id="Oval-1" fill-rule="nonzero"></path>
                <rect id="Rectangle-1" transform="translate(14.060460, 14.060460) rotate(-45.000000) translate(-14.060460, -14.060460) " x="12.333898" y="11.0721792" width="3.453125" height="5.9765625" rx="1.7265625"></rect>
            </g>
        </g>
    </g>
</svg>