<?xml version="1.0" encoding="UTF-8" standalone="no"?>
<svg width="183px" height="25px" viewBox="0 0 183 25" version="1.1" xmlns="http://www.w3.org/2000/svg" xmlns:xlink="http://www.w3.org/1999/xlink">
    <!-- Generator: Sketch 43.2 (39069) - http://www.bohemiancoding.com/sketch -->
    <title>Group</title>
    <desc>Created with Sketch.</desc>
    <defs></defs>
    <g id="Page-1" stroke="none" stroke-width="1" fill="none" fill-rule="evenodd">
        <g id="Group" fill-rule="nonzero">
            <path d="M14.796989,0.219232509 L4.31590012,0.219232509 C1.93602137,0.219232509 -8.78751501e-05,2.15190795 -8.78751501e-05,4.52756584 L-8.78751501e-05,12.1282237 C0.896458343,11.0216448 2.20953277,10.265943 3.69923625,10.1010308 L3.69923625,4.52756584 C3.69923625,4.18765356 3.9756036,3.91199567 4.31590012,3.91199567 L14.796989,3.91199567 C16.8367909,3.91199567 18.4963131,5.56857461 18.4963131,7.60475882 C18.4963131,9.64072374 16.8367909,11.297522 14.796989,11.297522 L4.31590012,11.297522 C4.1060982,11.297522 3.90003097,11.3119957 3.69923625,11.3416009 C1.61044394,11.6407237 -8.78751501e-05,13.4391886 -8.78751501e-05,15.605636 L-8.78751501e-05,20.5291009 C-8.78751501e-05,22.9047588 1.93602137,24.837215 4.31590012,24.837215 L9.24811261,24.837215 C11.6279914,24.837215 13.5641006,22.9047588 13.5641006,20.5291009 L13.5641006,16.2209869 L9.86477647,16.2209869 L9.86477647,20.5291009 C9.86477647,20.8690132 9.58840912,21.1446711 9.24811261,21.1446711 L4.31590012,21.1446711 C3.9756036,21.1446711 3.69923625,20.8690132 3.69923625,20.5291009 L3.69923625,15.605636 C3.69923625,15.2657237 3.9756036,14.9900658 4.31590012,14.9900658 L14.796989,14.9900658 C18.8765928,14.9900658 22.1956372,11.6769079 22.1956372,7.60475882 C22.1956372,3.53217111 18.8765928,0.219232509 14.796989,0.219232509" id="Fill-1" fill="#1CAFA2"></path>
            <path d="M34.5264101,12.5283114 L38.0495445,12.5283114 C39.0210043,12.5283114 39.8112216,11.7392763 39.8112216,10.7697588 C39.8112216,9.80046053 39.0210043,9.01142544 38.0495445,9.01142544 L34.5264101,9.01142544 L34.5264101,12.5283114 Z M34.5264101,19.5620833 L31.0034953,19.5620833 L31.0034953,5.49453947 L38.0495445,5.49453947 C40.9639239,5.49453947 43.3343561,7.86076754 43.3343561,10.7697588 C43.3343561,13.67875 40.9639239,16.0451974 38.0495445,16.0451974 L34.5264101,16.0451974 L34.5264101,19.5620833 Z" id="Fill-4" fill="#262442"></path>
            <polygon id="Fill-6" fill="#262442" points="47.2814442 19.5620614 50.8045786 19.5620614 50.8045786 5.49473684 47.2814442 5.49473684"></polygon>
            <polygon id="Fill-8" fill="#262442" points="68.9029491 19.5620395 64.4670115 19.5620395 60.0350283 13.7662061 58.8159803 14.9795833 58.8159803 19.5620395 55.2928459 19.5620395 55.2928459 5.49471491 58.8159803 5.49471491 58.8159803 10.0137939 63.3573681 5.49471491 68.349775 5.49471491 62.5506742 11.2622588"></polygon>
            <polygon id="Fill-9" fill="#262442" points="83.3461527 5.49460526 71.3676713 5.49460526 71.3676713 9.01149123 75.5953448 9.01149123 75.5953448 19.5619298 79.1184792 19.5619298 79.1184792 9.01149123 83.3461527 9.01149123"></polygon>
            <polygon id="Fill-10" fill="#262442" points="182.998199 5.49460526 171.019717 5.49460526 171.019717 9.01149123 175.247391 9.01149123 175.247391 19.5619298 178.770525 19.5619298 178.770525 9.01149123 182.998199 9.01149123"></polygon>
            <path d="M93.1400579,9.01140351 C91.197358,9.01140351 89.6169234,10.5890351 89.6169234,12.5282895 C89.6169234,14.4673246 91.197358,16.0451754 93.1400579,16.0451754 C95.0825381,16.0451754 96.6629726,14.4673246 96.6629726,12.5282895 C96.6629726,10.5890351 95.0825381,9.01140351 93.1400579,9.01140351 M93.1400579,19.5620614 C89.2546581,19.5620614 86.0940086,16.4067982 86.0940086,12.5282895 C86.0940086,8.6497807 89.2546581,5.49451754 93.1400579,5.49451754 C97.0256773,5.49451754 100.186327,8.6497807 100.186327,12.5282895 C100.186327,16.4067982 97.0256773,19.5620614 93.1400579,19.5620614" id="Fill-11" fill="#262442"></path>
            <path d="M110.851316,19.5620395 C106.965917,19.5620395 103.805047,16.4067763 103.805047,12.5282675 C103.805047,8.64975877 106.965917,5.49471491 110.851316,5.49471491 C113.070164,5.49471491 115.186417,6.56203947 116.512453,8.34953947 L113.680676,10.4425219 C113.006674,9.53309211 111.97502,9.01138158 110.851316,9.01138158 C108.908836,9.01138158 107.328182,10.5890132 107.328182,12.5282675 C107.328182,14.4675219 108.908836,16.0451535 110.851316,16.0451535 C112.000284,16.0451535 113.081368,15.4802412 113.742409,14.5335307 L116.632403,16.5447149 C115.313177,18.4341886 113.152107,19.5620395 110.851316,19.5620395" id="Fill-12" fill="#262442"></path>
            <polygon id="Fill-13" fill="#262442" points="128.947468 5.49460526 128.947468 10.8527193 124.015036 10.8527193 124.015036 5.49460526 120.491901 5.49460526 120.491901 19.5619298 124.015036 19.5619298 124.015036 14.3696053 128.947468 14.3696053 128.947468 19.5619298 132.470602 19.5619298 132.470602 5.49460526"></polygon>
            <path d="M158.719679,9.01140351 L162.242813,9.01140351 C163.215152,9.01140351 164.00471,9.79912281 164.00471,10.7699561 C164.00471,11.7403509 163.215152,12.5282895 162.242813,12.5282895 L158.719679,12.5282895 L158.719679,9.01140351 Z M164.603359,15.4894737 C166.336916,14.6208333 167.527625,12.8307018 167.527625,10.7699561 C167.527625,7.86140351 165.156533,5.49451754 162.242813,5.49451754 L155.196764,5.49451754 L155.196764,19.5620614 L158.719679,19.5620614 L158.719679,16.0451754 L160.643485,16.0451754 L163.222401,19.5620614 L167.58738,19.5620614 L164.603359,15.4894737 Z" id="Fill-14" fill="#262442"></path>
            <path d="M142.033286,13.9350219 L143.833628,9.30322368 L145.63397,13.9350219 L142.033286,13.9350219 Z M146.134419,5.49467105 L141.533276,5.49467105 L136.06876,19.5619956 L139.849149,19.5619956 L140.669903,17.4519079 L146.997353,17.4519079 L147.818327,19.5619956 L151.598716,19.5619956 L146.134419,5.49467105 Z" id="Fill-15" fill="#262442"></path>
        </g>
    </g>
</svg>